<svg width="44" height="51" viewBox="0 0 44 51" fill="none" xmlns="http://www.w3.org/2000/svg">
<g filter="url(#filter0_ddddd_4102_364)">
<path d="M37.8377 11.0819H31.5238C31.594 11.0225 31.666 10.9649 31.7344 10.9019C32.281 10.4162 32.7216 9.82302 33.0285 9.15934C33.3354 8.49566 33.502 7.77579 33.518 7.04475C33.5417 6.24502 33.4016 5.4489 33.1065 4.70525C32.8113 3.96161 32.3672 3.28614 31.8016 2.72031C31.2359 2.15448 30.5606 1.71024 29.817 1.41485C29.0735 1.11947 28.2774 0.979169 27.4777 1.00257C26.7463 1.01833 26.0261 1.18487 25.3621 1.49179C24.6981 1.79871 24.1046 2.23939 23.6187 2.78625C22.9464 3.5654 22.3999 4.44473 21.9988 5.39247C21.5978 4.44473 21.0512 3.5654 20.379 2.78625C19.8931 2.23939 19.2996 1.79871 18.6356 1.49179C17.9716 1.18487 17.2514 1.01833 16.52 1.00257C15.7203 0.979169 14.9242 1.11947 14.1806 1.41485C13.4371 1.71024 12.7618 2.15448 12.1961 2.72031C11.6304 3.28614 11.1864 3.96161 10.8912 4.70525C10.5961 5.4489 10.456 6.24502 10.4796 7.04475C10.4956 7.77579 10.6623 8.49566 10.9692 9.15934C11.2761 9.82302 11.7167 10.4162 12.2633 10.9019C12.3317 10.9613 12.4037 11.0189 12.4739 11.0819H6.15995C5.39618 11.0819 4.66369 11.3853 4.12362 11.9253C3.58356 12.4654 3.28015 13.1979 3.28015 13.9617V19.7213C3.28015 20.485 3.58356 21.2175 4.12362 21.7576C4.66369 22.2977 5.39618 22.6011 6.15995 22.6011V34.1203C6.15995 34.884 6.46336 35.6165 7.00342 36.1566C7.54349 36.6967 8.27598 37.0001 9.03975 37.0001H19.839C20.0299 37.0001 20.2131 36.9242 20.3481 36.7892C20.4831 36.6542 20.5589 36.471 20.5589 36.2801V19.7213H6.15995V13.9617H20.5589V19.7213H23.4387V13.9617H37.8377V19.7213H23.4387V36.2801C23.4387 36.471 23.5146 36.6542 23.6496 36.7892C23.7846 36.9242 23.9677 37.0001 24.1587 37.0001H34.9579C35.7217 37.0001 36.4542 36.6967 36.9943 36.1566C37.5343 35.6165 37.8377 34.884 37.8377 34.1203V22.6011C38.6015 22.6011 39.334 22.2977 39.8741 21.7576C40.4141 21.2175 40.7175 20.485 40.7175 19.7213V13.9617C40.7175 13.1979 40.4141 12.4654 39.8741 11.9253C39.334 11.3853 38.6015 11.0819 37.8377 11.0819ZM14.1712 8.74203C13.9194 8.51405 13.7175 8.23647 13.5781 7.92673C13.4387 7.617 13.3649 7.28179 13.3612 6.94216C13.3521 6.54421 13.4226 6.14845 13.5684 5.77806C13.7142 5.40767 13.9324 5.07011 14.2103 4.78514C14.4883 4.50018 14.8203 4.27355 15.1869 4.11853C15.5535 3.96351 15.9474 3.88323 16.3454 3.88237H16.4336C16.7733 3.88604 17.1085 3.95988 17.4182 4.09926C17.7279 4.23864 18.0055 4.44055 18.2335 4.69232C19.7436 6.3986 20.2764 9.228 20.4636 10.9775C18.7069 10.7921 15.8793 10.2593 14.1712 8.74203ZM29.8301 8.74203C28.122 10.2539 25.2872 10.7867 23.5305 10.9739C23.7447 9.08221 24.3387 6.3122 25.7786 4.69412C26.0066 4.44235 26.2841 4.24044 26.5939 4.10106C26.9036 3.96168 27.2388 3.88784 27.5785 3.88417H27.6666C28.0647 3.88666 28.4583 3.96858 28.8243 4.12512C29.1903 4.28167 29.5214 4.50969 29.7982 4.79584C30.0749 5.08198 30.2918 5.42048 30.436 5.79151C30.5803 6.16253 30.649 6.55862 30.6382 6.95656C30.6324 7.29389 30.5573 7.62642 30.4177 7.93354C30.278 8.24067 30.0768 8.51585 29.8265 8.74203H29.8301Z" fill="#D658B3"/>
<path d="M16.3436 2.8819C15.8126 2.88304 15.2868 2.99057 14.7977 3.19733C14.3085 3.40417 13.8648 3.70675 13.494 4.08698C13.1233 4.46715 12.8321 4.91806 12.6376 5.41217C12.4447 5.90227 12.3509 6.42571 12.3612 6.95221V6.95319C12.3664 7.43049 12.47 7.90167 12.6659 8.33698C12.8373 8.71798 13.0768 9.06407 13.371 9.35944L13.4999 9.48346L13.5067 9.48932C14.5116 10.382 15.7986 10.9492 17.0087 11.3165C18.2287 11.6868 19.4416 11.875 20.3583 11.9717L21.5897 12.1016L21.4579 10.8712C21.3603 9.95867 21.1711 8.74734 20.8016 7.52838C20.4582 6.39534 19.9409 5.19377 19.1454 4.22076L18.9823 4.02936L18.9745 4.02155L18.8514 3.89166C18.5562 3.59763 18.2098 3.35901 17.829 3.18756C17.3935 2.99161 16.9217 2.88802 16.4442 2.88287L16.4335 3.86237L16.4442 2.8819H16.3436ZM7.16003 21.6006H6.16003C5.66161 21.6006 5.18344 21.4032 4.83093 21.0508C4.47851 20.6984 4.28028 20.2201 4.28015 19.7217V13.962L4.28894 13.7755C4.33174 13.3453 4.52262 12.9412 4.83093 12.6329C5.18346 12.2803 5.66148 12.0821 6.16003 12.0821H15.0858L13.1415 10.338L12.9188 10.1465C12.479 9.75371 12.1244 9.27461 11.8768 8.73932C11.6589 8.26801 11.5281 7.76182 11.4901 7.24518L11.4794 7.02252V7.01569L11.4784 6.76666C11.4908 6.18727 11.6069 5.61416 11.8212 5.07428C12.066 4.45745 12.434 3.89717 12.9032 3.4278C13.3725 2.95834 13.9328 2.58889 14.5497 2.34381C15.0894 2.12938 15.6627 2.01367 16.2421 2.00104L16.4911 2.00201H16.4989C17.0924 2.01485 17.6768 2.15044 18.2157 2.39948C18.7502 2.64654 19.2284 3.00075 19.621 3.43951H19.6219C20.2262 4.13986 20.7175 4.93041 21.078 5.78229L21.9989 7.95807L22.9198 5.78229C23.2352 5.0369 23.6504 4.33822 24.1542 3.70612L24.3759 3.43951C24.7685 3.00055 25.2474 2.64662 25.7821 2.39948C26.2537 2.18153 26.7602 2.05058 27.2772 2.01276L27.4989 2.00201H27.5067C28.1702 1.9826 28.8312 2.09874 29.4481 2.34381C30.065 2.58889 30.6253 2.95837 31.0946 3.4278C31.5637 3.89717 31.9318 4.45746 32.1766 5.07428C32.3909 5.61416 32.507 6.18727 32.5194 6.76666L32.5184 7.01569V7.02252C32.5131 7.26475 32.4858 7.50553 32.4403 7.74225H31.537C31.5988 7.49126 31.634 7.2335 31.6385 6.97369L31.6376 6.97272C31.6504 6.44543 31.5592 5.92044 31.368 5.42877C31.1756 4.93384 30.8857 4.48236 30.5165 4.10065C30.1473 3.71902 29.7058 3.41495 29.2177 3.20612C28.7904 3.02338 28.3349 2.91671 27.8719 2.89069L27.6727 2.88385H27.5673C27.0899 2.88905 26.6188 2.99362 26.1835 3.18951C25.8026 3.36095 25.4563 3.59956 25.161 3.89362L25.037 4.02252L25.0311 4.02936C24.1791 4.98688 23.6173 6.23387 23.2411 7.4317C22.8613 8.64094 22.6489 9.87271 22.537 10.8614L22.3964 12.1006L23.6366 11.9678C24.5526 11.8702 25.7667 11.6813 26.9882 11.3116C28.1992 10.945 29.4879 10.3809 30.493 9.49127L32.4335 7.77252C32.3671 8.10505 32.264 8.42994 32.121 8.73932C31.8718 9.27813 31.514 9.76008 31.0702 10.1544L31.0565 10.1661C31.0086 10.2102 30.976 10.2353 30.8778 10.3184L28.7938 12.0821H37.8378C38.3363 12.0821 38.8143 12.2804 39.1669 12.6329C39.5193 12.9854 39.7177 13.4635 39.7177 13.962V19.7217C39.7175 20.2201 39.5193 20.6984 39.1669 21.0508C38.8144 21.4032 38.3362 21.6006 37.8378 21.6006H36.8378V34.1202C36.8378 34.6187 36.6395 35.0968 36.287 35.4493C35.9345 35.8018 35.4564 36.0001 34.9579 36.0001H24.4384V20.7217H38.8378V12.962H22.4384V18.7217H21.5585V12.962H5.16003V20.7217H19.5585V36.0001H9.03992C8.54138 36.0001 8.06334 35.8018 7.71082 35.4493C7.35828 35.0967 7.16003 34.6187 7.16003 34.1202V21.6006Z" stroke="white" stroke-width="2"/>
</g>
<defs>
<filter id="filter0_ddddd_4102_364" x="0.280151" y="6.10948e-05" width="43.4374" height="52" filterUnits="userSpaceOnUse" color-interpolation-filters="sRGB">
<feFlood flood-opacity="0" result="BackgroundImageFix"/>
<feColorMatrix in="SourceAlpha" type="matrix" values="0 0 0 0 0 0 0 0 0 0 0 0 0 0 0 0 0 0 127 0" result="hardAlpha"/>
<feOffset/>
<feGaussianBlur stdDeviation="0.5"/>
<feColorMatrix type="matrix" values="0 0 0 0 0 0 0 0 0 0 0 0 0 0 0 0 0 0 0.29 0"/>
<feBlend mode="normal" in2="BackgroundImageFix" result="effect1_dropShadow_4102_364"/>
<feColorMatrix in="SourceAlpha" type="matrix" values="0 0 0 0 0 0 0 0 0 0 0 0 0 0 0 0 0 0 127 0" result="hardAlpha"/>
<feOffset dy="2"/>
<feGaussianBlur stdDeviation="1"/>
<feColorMatrix type="matrix" values="0 0 0 0 0 0 0 0 0 0 0 0 0 0 0 0 0 0 0.26 0"/>
<feBlend mode="normal" in2="effect1_dropShadow_4102_364" result="effect2_dropShadow_4102_364"/>
<feColorMatrix in="SourceAlpha" type="matrix" values="0 0 0 0 0 0 0 0 0 0 0 0 0 0 0 0 0 0 127 0" result="hardAlpha"/>
<feOffset dy="4"/>
<feGaussianBlur stdDeviation="1.5"/>
<feColorMatrix type="matrix" values="0 0 0 0 0 0 0 0 0 0 0 0 0 0 0 0 0 0 0.15 0"/>
<feBlend mode="normal" in2="effect2_dropShadow_4102_364" result="effect3_dropShadow_4102_364"/>
<feColorMatrix in="SourceAlpha" type="matrix" values="0 0 0 0 0 0 0 0 0 0 0 0 0 0 0 0 0 0 127 0" result="hardAlpha"/>
<feOffset dy="8"/>
<feGaussianBlur stdDeviation="1.5"/>
<feColorMatrix type="matrix" values="0 0 0 0 0 0 0 0 0 0 0 0 0 0 0 0 0 0 0.04 0"/>
<feBlend mode="normal" in2="effect3_dropShadow_4102_364" result="effect4_dropShadow_4102_364"/>
<feColorMatrix in="SourceAlpha" type="matrix" values="0 0 0 0 0 0 0 0 0 0 0 0 0 0 0 0 0 0 127 0" result="hardAlpha"/>
<feOffset dy="12"/>
<feGaussianBlur stdDeviation="1.5"/>
<feColorMatrix type="matrix" values="0 0 0 0 0 0 0 0 0 0 0 0 0 0 0 0 0 0 0.01 0"/>
<feBlend mode="normal" in2="effect4_dropShadow_4102_364" result="effect5_dropShadow_4102_364"/>
<feBlend mode="normal" in="SourceGraphic" in2="effect5_dropShadow_4102_364" result="shape"/>
</filter>
</defs>
</svg>
