<svg width="112" height="112" viewBox="0 0 112 112" fill="none" xmlns="http://www.w3.org/2000/svg">
<g clip-path="url(#clip0_2130_499)">
<g filter="url(#filter0_ddddd_2130_499)">
<path d="M86.5813 48.1313C85.4031 46.9 84.1844 45.6313 83.725 44.5156C83.3 43.4937 83.275 41.8 83.25 40.1594C83.2031 37.1094 83.1531 33.6531 80.75 31.25C78.3469 28.8469 74.8906 28.7969 71.8406 28.75C70.2 28.725 68.5062 28.7 67.4844 28.275C66.3719 27.8156 65.1 26.5969 63.8687 25.4187C61.7125 23.3469 59.2625 21 56 21C52.7375 21 50.2906 23.3469 48.1313 25.4187C46.9 26.5969 45.6313 27.8156 44.5156 28.275C43.5 28.7 41.8 28.725 40.1594 28.75C37.1094 28.7969 33.6531 28.8469 31.25 31.25C28.8469 33.6531 28.8125 37.1094 28.75 40.1594C28.725 41.8 28.7 43.4937 28.275 44.5156C27.8156 45.6281 26.5969 46.9 25.4187 48.1313C23.3469 50.2875 21 52.7375 21 56C21 59.2625 23.3469 61.7094 25.4187 63.8687C26.5969 65.1 27.8156 66.3688 28.275 67.4844C28.7 68.5062 28.725 70.2 28.75 71.8406C28.7969 74.8906 28.8469 78.3469 31.25 80.75C33.6531 83.1531 37.1094 83.2031 40.1594 83.25C41.8 83.275 43.4937 83.3 44.5156 83.725C45.6281 84.1844 46.9 85.4031 48.1313 86.5813C50.2875 88.6531 52.7375 91 56 91C59.2625 91 61.7094 88.6531 63.8687 86.5813C65.1 85.4031 66.3688 84.1844 67.4844 83.725C68.5062 83.3 70.2 83.275 71.8406 83.25C74.8906 83.2031 78.3469 83.1531 80.75 80.75C83.1531 78.3469 83.2031 74.8906 83.25 71.8406C83.275 70.2 83.3 68.5062 83.725 67.4844C84.1844 66.3719 85.4031 65.1 86.5813 63.8687C88.6531 61.7125 91 59.2625 91 56C91 52.7375 88.6531 50.2906 86.5813 48.1313ZM70.2688 50.2688L52.7688 67.7687C52.5366 68.0012 52.2608 68.1856 51.9574 68.3114C51.6539 68.4372 51.3285 68.502 51 68.502C50.6715 68.502 50.3461 68.4372 50.0427 68.3114C49.7392 68.1856 49.4634 68.0012 49.2313 67.7687L41.7312 60.2688C41.2621 59.7997 40.9986 59.1634 40.9986 58.5C40.9986 57.8366 41.2621 57.2004 41.7312 56.7312C42.2003 56.2621 42.8366 55.9986 43.5 55.9986C44.1634 55.9986 44.7997 56.2621 45.2688 56.7312L51 62.4656L66.7313 46.7313C66.9635 46.499 67.2393 46.3147 67.5428 46.189C67.8462 46.0633 68.1715 45.9986 68.5 45.9986C68.8285 45.9986 69.1538 46.0633 69.4572 46.189C69.7607 46.3147 70.0365 46.499 70.2688 46.7313C70.501 46.9635 70.6853 47.2393 70.811 47.5428C70.9367 47.8462 71.0014 48.1715 71.0014 48.5C71.0014 48.8285 70.9367 49.1538 70.811 49.4572C70.6853 49.7607 70.501 50.0365 70.2688 50.2688Z" fill="#45B442"/>
<path d="M56 22.75C58.1335 22.75 59.8884 24.0867 61.8174 25.8848L62.6562 26.6807L62.6592 26.6836C63.2644 27.2627 63.9351 27.9061 64.6006 28.4609C65.2512 29.0033 66.0108 29.5599 66.8164 29.8926V29.8916C67.5864 30.2111 68.4863 30.3401 69.2861 30.4062C69.6992 30.4404 70.1297 30.4614 70.5576 30.4746L71.8135 30.5C75.0216 30.5493 77.6947 30.6693 79.5127 32.4873C81.1034 34.0781 81.3947 36.3232 81.4756 39.0088L81.5 40.1865C81.5123 40.9926 81.5255 41.888 81.5938 42.7139C81.6598 43.5126 81.788 44.4113 82.1064 45.1807V45.1816C82.4393 45.99 82.9972 46.7507 83.54 47.4014C83.8175 47.7339 84.1174 48.0674 84.4199 48.3936L85.3164 49.3408L85.3184 49.3428C87.505 51.6217 89.25 53.5618 89.25 56C89.25 58.1335 87.9133 59.8884 86.1152 61.8174L85.3193 62.6562L85.3164 62.6592C84.7373 63.2644 84.0939 63.9351 83.5391 64.6006C82.9976 65.2501 82.4422 66.0084 82.1094 66.8125C81.7888 67.5833 81.66 68.485 81.5938 69.2861C81.5596 69.6992 81.5386 70.1297 81.5254 70.5576L81.5 71.8135C81.4507 75.0216 81.3307 77.6947 79.5127 79.5127C77.9219 81.1034 75.6768 81.3947 72.9912 81.4756L71.8135 81.5C71.0074 81.5123 70.112 81.5255 69.2861 81.5938C68.5852 81.6517 67.8073 81.7577 67.1074 81.998L66.8184 82.1064C66.01 82.4393 65.2493 82.9972 64.5986 83.54C64.2661 83.8175 63.9326 84.1174 63.6064 84.4199L62.6592 85.3164L62.6572 85.3184C60.3783 87.505 58.4382 89.25 56 89.25C53.8665 89.25 52.1116 87.9133 50.1826 86.1152L49.3438 85.3193L49.3408 85.3164L48.3926 84.4189C48.0661 84.1165 47.7321 83.8165 47.3994 83.5391C46.7488 82.9967 45.9892 82.4401 45.1836 82.1074H45.1826C44.4129 81.7883 43.5133 81.6598 42.7139 81.5938C42.3008 81.5596 41.8703 81.5386 41.4424 81.5254L40.1865 81.5C36.9784 81.4507 34.3053 81.3307 32.4873 79.5127C30.8966 77.9219 30.6053 75.6768 30.5244 72.9912L30.5 71.8135C30.4877 71.0074 30.4745 70.112 30.4062 69.2861C30.3402 68.487 30.2114 67.5879 29.8926 66.8184H29.8936C29.5607 66.01 29.0028 65.2493 28.46 64.5986C28.1825 64.2661 27.8826 63.9326 27.5801 63.6064L26.6836 62.6592L26.6816 62.6572L25.8848 61.8164C24.086 59.8851 22.75 58.1334 22.75 56C22.75 53.8665 24.0867 52.1116 25.8848 50.1826L26.6807 49.3438L26.6836 49.3408C27.2627 48.7356 27.9061 48.0649 28.4609 47.3994C29.0033 46.7488 29.5599 45.9892 29.8926 45.1836L29.8916 45.1826C30.2108 44.4128 30.3402 43.5134 30.4062 42.7139C30.4743 41.891 30.4878 40.9991 30.5 40.1953C30.5661 36.9698 30.6695 34.3051 32.4873 32.4873C34.0781 30.8966 36.3232 30.6053 39.0088 30.5244L40.1865 30.5C40.9925 30.4877 41.8892 30.4745 42.7158 30.4062C43.513 30.3404 44.4126 30.2118 45.1807 29.8926L45.1816 29.8936C45.1838 29.8927 45.1863 29.8915 45.1885 29.8906L45.1914 29.8896L45.1904 29.8887C45.9955 29.5554 46.7531 29.0008 47.4014 28.46C47.7339 28.1825 48.0674 27.8826 48.3936 27.5801L49.3408 26.6836L49.3428 26.6816C51.6218 24.495 53.5618 22.75 56 22.75ZM68.5 44.249C68.0115 44.249 67.5273 44.3329 67.0684 44.4971L66.873 44.5723C66.4218 44.7592 66.0067 45.0223 65.6455 45.3496L65.4941 45.4941L51 59.9902L46.5068 55.4941H46.5059C45.7086 54.6968 44.6275 54.249 43.5 54.249C42.4429 54.249 41.4264 54.6424 40.6465 55.3486L40.4941 55.4941C39.6969 56.2914 39.249 57.3725 39.249 58.5C39.249 59.5571 39.6424 60.5736 40.3486 61.3535L40.4941 61.5059L47.9932 69.0049V69.0059C48.3385 69.3516 48.7409 69.6341 49.1816 69.8428L49.3721 69.9277C49.888 70.1416 50.4415 70.252 51 70.252C51.4888 70.252 51.9734 70.1674 52.4326 70.0029L52.6279 69.9277C53.1436 69.7139 53.6123 69.4008 54.0068 69.0059L54.0059 69.0049L71.5059 51.5059C71.8512 51.1605 72.1343 50.7589 72.3428 50.3184L72.4277 50.127C72.6414 49.6112 72.751 49.0583 72.751 48.5C72.751 48.0115 72.6671 47.5273 72.5029 47.0684L72.4277 46.873C72.2408 46.4218 71.9777 46.0067 71.6504 45.6455L71.5059 45.4941C71.1605 45.1488 70.7589 44.8657 70.3184 44.6572L70.127 44.5723C69.6111 44.3586 69.0583 44.249 68.5 44.249Z" stroke="white" stroke-width="3.5"/>
</g>
</g>
<defs>
<filter id="filter0_ddddd_2130_499" x="15.75" y="19.25" width="80.5" height="98" filterUnits="userSpaceOnUse" color-interpolation-filters="sRGB">
<feFlood flood-opacity="0" result="BackgroundImageFix"/>
<feColorMatrix in="SourceAlpha" type="matrix" values="0 0 0 0 0 0 0 0 0 0 0 0 0 0 0 0 0 0 127 0" result="hardAlpha"/>
<feOffset/>
<feGaussianBlur stdDeviation="0.875"/>
<feColorMatrix type="matrix" values="0 0 0 0 0 0 0 0 0 0 0 0 0 0 0 0 0 0 0.29 0"/>
<feBlend mode="normal" in2="BackgroundImageFix" result="effect1_dropShadow_2130_499"/>
<feColorMatrix in="SourceAlpha" type="matrix" values="0 0 0 0 0 0 0 0 0 0 0 0 0 0 0 0 0 0 127 0" result="hardAlpha"/>
<feOffset dy="3.5"/>
<feGaussianBlur stdDeviation="1.75"/>
<feColorMatrix type="matrix" values="0 0 0 0 0 0 0 0 0 0 0 0 0 0 0 0 0 0 0.26 0"/>
<feBlend mode="normal" in2="effect1_dropShadow_2130_499" result="effect2_dropShadow_2130_499"/>
<feColorMatrix in="SourceAlpha" type="matrix" values="0 0 0 0 0 0 0 0 0 0 0 0 0 0 0 0 0 0 127 0" result="hardAlpha"/>
<feOffset dy="7"/>
<feGaussianBlur stdDeviation="2.625"/>
<feColorMatrix type="matrix" values="0 0 0 0 0 0 0 0 0 0 0 0 0 0 0 0 0 0 0.15 0"/>
<feBlend mode="normal" in2="effect2_dropShadow_2130_499" result="effect3_dropShadow_2130_499"/>
<feColorMatrix in="SourceAlpha" type="matrix" values="0 0 0 0 0 0 0 0 0 0 0 0 0 0 0 0 0 0 127 0" result="hardAlpha"/>
<feOffset dy="14"/>
<feGaussianBlur stdDeviation="2.625"/>
<feColorMatrix type="matrix" values="0 0 0 0 0 0 0 0 0 0 0 0 0 0 0 0 0 0 0.04 0"/>
<feBlend mode="normal" in2="effect3_dropShadow_2130_499" result="effect4_dropShadow_2130_499"/>
<feColorMatrix in="SourceAlpha" type="matrix" values="0 0 0 0 0 0 0 0 0 0 0 0 0 0 0 0 0 0 127 0" result="hardAlpha"/>
<feOffset dy="21"/>
<feGaussianBlur stdDeviation="2.625"/>
<feColorMatrix type="matrix" values="0 0 0 0 0 0 0 0 0 0 0 0 0 0 0 0 0 0 0.01 0"/>
<feBlend mode="normal" in2="effect4_dropShadow_2130_499" result="effect5_dropShadow_2130_499"/>
<feBlend mode="normal" in="SourceGraphic" in2="effect5_dropShadow_2130_499" result="shape"/>
</filter>
<clipPath id="clip0_2130_499">
<rect width="112" height="112" fill="white"/>
</clipPath>
</defs>
</svg>
