<svg width="112" height="151" viewBox="0 0 112 151" fill="none" xmlns="http://www.w3.org/2000/svg">
<g clip-path="url(#clip0_2130_527)" filter="url(#filter0_dddd_2130_527)">
<g filter="url(#filter1_ddddd_2130_527)">
<path d="M83.7159 42.1432H72.6665C72.7894 42.0392 72.9153 41.9384 73.035 41.8282C73.9917 40.9783 74.7626 39.9402 75.2997 38.7787C75.8368 37.6173 76.1285 36.3575 76.1565 35.0782C76.1978 33.6787 75.9527 32.2855 75.4362 30.9841C74.9197 29.6827 74.1426 28.5006 73.1527 27.5104C72.1628 26.5202 70.9809 25.7428 69.6797 25.2259C68.3785 24.709 66.9854 24.4634 65.5858 24.5044C64.306 24.532 63.0456 24.8234 61.8836 25.3605C60.7216 25.8976 59.6829 26.6688 58.8327 27.6258C57.6562 28.9894 56.6997 30.5282 55.9979 32.1867C55.296 30.5282 54.3396 28.9894 53.1631 27.6258C52.3128 26.6688 51.2742 25.8976 50.1122 25.3605C48.9502 24.8234 47.6898 24.532 46.41 24.5044C45.0104 24.4634 43.6173 24.709 42.316 25.2259C41.0148 25.7428 39.833 26.5202 38.8431 27.5104C37.8532 28.5006 37.0761 29.6827 36.5596 30.9841C36.043 32.2855 35.7979 33.6787 35.8393 35.0782C35.8673 36.3575 36.159 37.6173 36.696 38.7787C37.2331 39.9402 38.0041 40.9783 38.9607 41.8282C39.0804 41.9321 39.2064 42.0329 39.3292 42.1432H28.2798C26.9432 42.1432 25.6614 42.6741 24.7163 43.6192C23.7711 44.5644 23.2402 45.8462 23.2402 47.1828V57.2621C23.2402 58.5987 23.7711 59.8806 24.7163 60.8257C25.6614 61.7708 26.9432 62.3018 28.2798 62.3018V82.4604C28.2798 83.7969 28.8108 85.0788 29.7559 86.0239C30.701 86.969 31.9829 87.5 33.3195 87.5H52.2181C52.5523 87.5 52.8728 87.3673 53.109 87.131C53.3453 86.8947 53.4781 86.5742 53.4781 86.2401V57.2621H28.2798V47.1828H53.4781V57.2621H58.5177V47.1828H83.7159V57.2621H58.5177V86.2401C58.5177 86.5742 58.6504 86.8947 58.8867 87.131C59.123 87.3673 59.4435 87.5 59.7776 87.5H78.6763C80.0129 87.5 81.2947 86.969 82.2399 86.0239C83.185 85.0788 83.7159 83.7969 83.7159 82.4604V62.3018C85.0525 62.3018 86.3344 61.7708 87.2795 60.8257C88.2246 59.8806 88.7556 58.5987 88.7556 57.2621V47.1828C88.7556 45.8462 88.2246 44.5644 87.2795 43.6192C86.3344 42.6741 85.0525 42.1432 83.7159 42.1432ZM42.2995 38.0485C41.8589 37.6495 41.5056 37.1637 41.2616 36.6217C41.0177 36.0796 40.8885 35.493 40.8821 34.8987C40.8662 34.2023 40.9894 33.5097 41.2445 32.8615C41.4997 32.2133 41.8816 31.6226 42.368 31.1239C42.8544 30.6252 43.4354 30.2286 44.077 29.9573C44.7185 29.686 45.4078 29.5455 46.1044 29.544H46.2588C46.8531 29.5505 47.4397 29.6797 47.9818 29.9236C48.5238 30.1675 49.0096 30.5209 49.4085 30.9614C52.0512 33.9474 52.9835 38.8989 53.3111 41.9605C50.2369 41.6361 45.2886 40.7037 42.2995 38.0485ZM69.7026 38.0485C66.7134 40.6943 61.7525 41.6266 58.6783 41.9542C59.0532 38.6438 60.0926 33.7962 62.6124 30.9646C63.0114 30.524 63.4972 30.1707 64.0392 29.9267C64.5812 29.6828 65.1678 29.5536 65.7622 29.5472H65.9165C66.6132 29.5515 67.3019 29.6949 67.9424 29.9689C68.583 30.2428 69.1624 30.6419 69.6467 31.1426C70.131 31.6434 70.5105 32.2357 70.7629 32.885C71.0154 33.5343 71.1357 34.2275 71.1168 34.9239C71.1066 35.5142 70.9752 36.0961 70.7308 36.6336C70.4865 37.1711 70.1344 37.6526 69.6963 38.0485H69.7026Z" fill="#D658B3"/>
<path d="M46.1005 27.7939C45.1711 27.796 44.2515 27.9838 43.3954 28.3457C42.6463 28.6625 41.9591 29.1071 41.3642 29.6592L41.1152 29.9023C40.5475 30.4844 40.0863 31.1603 39.7519 31.8994L39.6161 32.2207C39.2784 33.0788 39.1145 33.9952 39.1328 34.917L39.1318 34.918C39.1397 35.6488 39.2804 36.3712 39.5449 37.0508L39.666 37.3398C40.0089 38.1018 40.5056 38.7848 41.1249 39.3457L41.1308 39.3516L41.1376 39.3564C42.8962 40.9186 45.1479 41.9099 47.2656 42.5527C49.4009 43.2008 51.5237 43.5319 53.1279 43.7012L55.2812 43.9277L55.0507 41.7744C54.8799 40.1776 54.5489 38.058 53.9023 35.9248C53.2612 33.8098 52.2737 31.5587 50.7187 29.8018L50.7128 29.7939L50.706 29.7871L50.4902 29.5605C50.0472 29.1194 49.5385 28.7496 48.9824 28.4639L48.7001 28.3281C47.9381 27.9852 47.1129 27.803 46.2773 27.7939H46.1005ZM30.0302 60.5518H28.2802C27.4625 60.5518 26.6756 60.2474 26.0722 59.7012L25.954 59.5879C25.3371 58.971 24.9902 58.1342 24.9902 57.2617V47.1826C24.9902 46.3648 25.2944 45.578 25.8408 44.9746L25.954 44.8564C26.5709 44.2397 27.4079 43.8936 28.2802 43.8936H43.8994L40.498 40.8408C40.3989 40.7519 40.1789 40.5666 40.121 40.5176C39.4424 39.9142 38.879 39.1942 38.457 38.3926L38.2841 38.0439C37.9027 37.219 37.6739 36.333 37.6074 35.4287L37.5888 35.04V35.0264L37.5869 34.5918C37.6055 33.7226 37.757 32.8614 38.0361 32.0381L38.1865 31.6299C38.5614 30.6852 39.1018 29.8163 39.7812 29.0635L40.081 28.748C40.7997 28.0291 41.6402 27.4455 42.5624 27.0234L42.9619 26.8525C43.9065 26.4773 44.9099 26.274 45.9238 26.252L46.3583 26.2539H46.372C47.2811 26.2735 48.1784 26.4572 49.0204 26.7949L49.3779 26.9492C50.3164 27.383 51.1554 28.005 51.8437 28.7764C52.8985 30.0003 53.757 31.3811 54.3867 32.8691L55.998 36.6768L57.6093 32.8691C58.2388 31.3815 59.0959 30.0001 60.1503 28.7764C60.7522 28.1016 61.4702 27.5413 62.2685 27.1211L62.6181 26.9492C63.4434 26.5678 64.3297 26.3387 65.2343 26.2725L65.624 26.2539H65.6367C66.7976 26.2199 67.9537 26.4229 69.0331 26.8516V26.8525C69.9778 27.2278 70.8469 27.7685 71.5995 28.4482L71.915 28.748C72.6335 29.4668 73.2169 30.3073 73.6386 31.2295L73.8095 31.6299C74.1845 32.5747 74.3874 33.5778 74.4091 34.5918L74.4072 35.0264V35.04C74.3979 35.4638 74.351 35.8847 74.2714 36.2988H72.6894C72.7963 35.8649 72.8562 35.4198 72.8652 34.9707L72.8661 34.9717C72.8882 34.1585 72.7678 33.3484 72.5117 32.5781L72.3945 32.251C72.0998 31.4931 71.6749 30.7933 71.1406 30.1826L70.9042 29.9258C70.2581 29.2578 69.4853 28.7249 68.6308 28.3594C67.883 28.0395 67.0857 27.8531 66.2753 27.8076L65.9277 27.7969H65.7431C65.0119 27.8048 64.2891 27.9453 63.6093 28.21L63.3212 28.3311C62.5592 28.674 61.8763 29.1706 61.3154 29.79L61.3105 29.7959L61.3046 29.8008C59.8134 31.4766 58.8302 33.6594 58.1718 35.7559C57.5073 37.8718 57.1353 40.0268 56.9394 41.7568L56.6943 43.9258L58.8642 43.6943C60.4672 43.5235 62.592 43.1928 64.7294 42.5459C66.8488 41.9044 69.1033 40.9153 70.8622 39.3584L74.2597 36.3516C74.1688 36.807 74.0386 37.2543 73.8652 37.6865L73.7109 38.0439C73.2749 38.9867 72.6495 39.8296 71.873 40.5195L71.8495 40.541C71.7655 40.6184 71.708 40.6621 71.5361 40.8076L67.8896 43.8936H83.7158C84.5337 43.8936 85.3203 44.1978 85.9238 44.7441L86.0419 44.8564C86.6588 45.4733 87.0057 46.3102 87.0058 47.1826V57.2617C87.0058 58.0797 86.7006 58.8663 86.1542 59.4697L86.0419 59.5879C85.425 60.2048 84.5882 60.5518 83.7158 60.5518H81.9658V82.46C81.9658 83.3322 81.6196 84.1692 81.0029 84.7861C80.386 85.403 79.549 85.7499 78.6767 85.75H60.2675V59.0117H85.4658V45.4326H56.7675V55.5117H55.2285V45.4326H26.5302V59.0117H51.7285V85.75H33.3193C32.5014 85.75 31.7147 85.4457 31.1113 84.8994L30.9931 84.7861C30.3764 84.1692 30.0302 83.3323 30.0302 82.46V60.5518Z" stroke="white" stroke-width="3.5"/>
</g>
</g>
<defs>
<filter id="filter0_dddd_2130_527" x="-17.5" y="-3.5" width="147" height="178.5" filterUnits="userSpaceOnUse" color-interpolation-filters="sRGB">
<feFlood flood-opacity="0" result="BackgroundImageFix"/>
<feColorMatrix in="SourceAlpha" type="matrix" values="0 0 0 0 0 0 0 0 0 0 0 0 0 0 0 0 0 0 127 0" result="hardAlpha"/>
<feOffset dy="3.5"/>
<feGaussianBlur stdDeviation="3.5"/>
<feColorMatrix type="matrix" values="0 0 0 0 0 0 0 0 0 0 0 0 0 0 0 0 0 0 0.08 0"/>
<feBlend mode="normal" in2="BackgroundImageFix" result="effect1_dropShadow_2130_527"/>
<feColorMatrix in="SourceAlpha" type="matrix" values="0 0 0 0 0 0 0 0 0 0 0 0 0 0 0 0 0 0 127 0" result="hardAlpha"/>
<feOffset dy="10.5"/>
<feGaussianBlur stdDeviation="5.25"/>
<feColorMatrix type="matrix" values="0 0 0 0 0 0 0 0 0 0 0 0 0 0 0 0 0 0 0.07 0"/>
<feBlend mode="normal" in2="effect1_dropShadow_2130_527" result="effect2_dropShadow_2130_527"/>
<feColorMatrix in="SourceAlpha" type="matrix" values="0 0 0 0 0 0 0 0 0 0 0 0 0 0 0 0 0 0 127 0" result="hardAlpha"/>
<feOffset dy="26.25"/>
<feGaussianBlur stdDeviation="7.875"/>
<feColorMatrix type="matrix" values="0 0 0 0 0 0 0 0 0 0 0 0 0 0 0 0 0 0 0.04 0"/>
<feBlend mode="normal" in2="effect2_dropShadow_2130_527" result="effect3_dropShadow_2130_527"/>
<feColorMatrix in="SourceAlpha" type="matrix" values="0 0 0 0 0 0 0 0 0 0 0 0 0 0 0 0 0 0 127 0" result="hardAlpha"/>
<feOffset dy="45.5"/>
<feGaussianBlur stdDeviation="8.75"/>
<feColorMatrix type="matrix" values="0 0 0 0 0 0 0 0 0 0 0 0 0 0 0 0 0 0 0.01 0"/>
<feBlend mode="normal" in2="effect3_dropShadow_2130_527" result="effect4_dropShadow_2130_527"/>
<feBlend mode="normal" in="SourceGraphic" in2="effect4_dropShadow_2130_527" result="shape"/>
</filter>
<filter id="filter1_ddddd_2130_527" x="17.9902" y="22.75" width="76.0154" height="91" filterUnits="userSpaceOnUse" color-interpolation-filters="sRGB">
<feFlood flood-opacity="0" result="BackgroundImageFix"/>
<feColorMatrix in="SourceAlpha" type="matrix" values="0 0 0 0 0 0 0 0 0 0 0 0 0 0 0 0 0 0 127 0" result="hardAlpha"/>
<feOffset/>
<feGaussianBlur stdDeviation="0.875"/>
<feColorMatrix type="matrix" values="0 0 0 0 0 0 0 0 0 0 0 0 0 0 0 0 0 0 0.29 0"/>
<feBlend mode="normal" in2="BackgroundImageFix" result="effect1_dropShadow_2130_527"/>
<feColorMatrix in="SourceAlpha" type="matrix" values="0 0 0 0 0 0 0 0 0 0 0 0 0 0 0 0 0 0 127 0" result="hardAlpha"/>
<feOffset dy="3.5"/>
<feGaussianBlur stdDeviation="1.75"/>
<feColorMatrix type="matrix" values="0 0 0 0 0 0 0 0 0 0 0 0 0 0 0 0 0 0 0.26 0"/>
<feBlend mode="normal" in2="effect1_dropShadow_2130_527" result="effect2_dropShadow_2130_527"/>
<feColorMatrix in="SourceAlpha" type="matrix" values="0 0 0 0 0 0 0 0 0 0 0 0 0 0 0 0 0 0 127 0" result="hardAlpha"/>
<feOffset dy="7"/>
<feGaussianBlur stdDeviation="2.625"/>
<feColorMatrix type="matrix" values="0 0 0 0 0 0 0 0 0 0 0 0 0 0 0 0 0 0 0.15 0"/>
<feBlend mode="normal" in2="effect2_dropShadow_2130_527" result="effect3_dropShadow_2130_527"/>
<feColorMatrix in="SourceAlpha" type="matrix" values="0 0 0 0 0 0 0 0 0 0 0 0 0 0 0 0 0 0 127 0" result="hardAlpha"/>
<feOffset dy="14"/>
<feGaussianBlur stdDeviation="2.625"/>
<feColorMatrix type="matrix" values="0 0 0 0 0 0 0 0 0 0 0 0 0 0 0 0 0 0 0.04 0"/>
<feBlend mode="normal" in2="effect3_dropShadow_2130_527" result="effect4_dropShadow_2130_527"/>
<feColorMatrix in="SourceAlpha" type="matrix" values="0 0 0 0 0 0 0 0 0 0 0 0 0 0 0 0 0 0 127 0" result="hardAlpha"/>
<feOffset dy="21"/>
<feGaussianBlur stdDeviation="2.625"/>
<feColorMatrix type="matrix" values="0 0 0 0 0 0 0 0 0 0 0 0 0 0 0 0 0 0 0.01 0"/>
<feBlend mode="normal" in2="effect4_dropShadow_2130_527" result="effect5_dropShadow_2130_527"/>
<feBlend mode="normal" in="SourceGraphic" in2="effect5_dropShadow_2130_527" result="shape"/>
</filter>
<clipPath id="clip0_2130_527">
<rect width="112" height="112" fill="white"/>
</clipPath>
</defs>
</svg>
