<svg width="88" height="88" viewBox="0 0 88 88" fill="none" xmlns="http://www.w3.org/2000/svg">
<rect width="88" height="88" rx="20" fill="#E9E7E9"/>
<g clip-path="url(#clip0_2125_368)">
<g filter="url(#filter1_ddddd_2125_368)">
<path d="M61.475 39.5036C60.8018 38.8001 60.1054 38.0751 59.8429 37.4376C59.6 36.8536 59.5857 35.8858 59.5714 34.9483C59.5446 33.2054 59.5161 31.2304 58.1429 29.8572C56.7696 28.484 54.7946 28.4554 53.0518 28.4286C52.1143 28.4143 51.1464 28.4001 50.5625 28.1572C49.9268 27.8947 49.2 27.1983 48.4964 26.5251C47.2643 25.3411 45.8643 24.0001 44 24.0001C42.1357 24.0001 40.7375 25.3411 39.5036 26.5251C38.8 27.1983 38.075 27.8947 37.4375 28.1572C36.8571 28.4001 35.8857 28.4143 34.9482 28.4286C33.2054 28.4554 31.2304 28.484 29.8571 29.8572C28.4839 31.2304 28.4643 33.2054 28.4286 34.9483C28.4143 35.8858 28.4 36.8536 28.1571 37.4376C27.8946 38.0733 27.1982 38.8001 26.525 39.5036C25.3411 40.7358 24 42.1358 24 44.0001C24 45.8643 25.3411 47.2626 26.525 48.4965C27.1982 49.2001 27.8946 49.9251 28.1571 50.5626C28.4 51.1465 28.4143 52.1143 28.4286 53.0518C28.4554 54.7947 28.4839 56.7697 29.8571 58.1429C31.2304 59.5161 33.2054 59.5447 34.9482 59.5715C35.8857 59.5858 36.8536 59.6001 37.4375 59.8429C38.0732 60.1054 38.8 60.8018 39.5036 61.4751C40.7357 62.659 42.1357 64.0001 44 64.0001C45.8643 64.0001 47.2625 62.659 48.4964 61.4751C49.2 60.8018 49.925 60.1054 50.5625 59.8429C51.1464 59.6001 52.1143 59.5858 53.0518 59.5715C54.7946 59.5447 56.7696 59.5161 58.1429 58.1429C59.5161 56.7697 59.5446 54.7947 59.5714 53.0518C59.5857 52.1143 59.6 51.1465 59.8429 50.5626C60.1054 49.9268 60.8018 49.2001 61.475 48.4965C62.6589 47.2643 64 45.8643 64 44.0001C64 42.1358 62.6589 40.7376 61.475 39.5036ZM52.1536 40.7251L42.1536 50.7251C42.0209 50.8579 41.8633 50.9633 41.6899 51.0351C41.5165 51.107 41.3306 51.144 41.1429 51.144C40.9551 51.144 40.7692 51.107 40.5958 51.0351C40.4224 50.9633 40.2648 50.8579 40.1321 50.7251L35.8464 46.4393C35.5784 46.1713 35.4278 45.8077 35.4278 45.4286C35.4278 45.0495 35.5784 44.686 35.8464 44.4179C36.1145 44.1499 36.4781 43.9993 36.8571 43.9993C37.2362 43.9993 37.5998 44.1499 37.8679 44.4179L41.1429 47.6947L50.1321 38.7036C50.2649 38.5709 50.4224 38.4656 50.5959 38.3938C50.7693 38.322 50.9551 38.285 51.1429 38.285C51.3306 38.285 51.5164 38.322 51.6898 38.3938C51.8633 38.4656 52.0208 38.5709 52.1536 38.7036C52.2863 38.8364 52.3916 38.9939 52.4634 39.1674C52.5352 39.3408 52.5722 39.5266 52.5722 39.7143C52.5722 39.9021 52.5352 40.0879 52.4634 40.2613C52.3916 40.4348 52.2863 40.5923 52.1536 40.7251Z" fill="#45B442"/>
<path d="M44 25.0001C45.2191 25.0001 46.222 25.7637 47.3242 26.7911L47.8037 27.2462L47.8047 27.2471C48.1504 27.578 48.5339 27.9457 48.9141 28.2628C49.2858 28.5727 49.7203 28.891 50.1807 29.0811V29.0801C50.6207 29.2628 51.1347 29.3373 51.5918 29.3751C51.8277 29.3946 52.0739 29.4066 52.3184 29.4141L53.0361 29.4288C54.7549 29.4552 56.2048 29.5171 57.2354 30.3809L57.4355 30.5645C58.3446 31.4736 58.5114 32.7563 58.5576 34.2911L58.5713 34.9639C58.5783 35.4245 58.586 35.9364 58.625 36.4083C58.6627 36.8646 58.736 37.3779 58.918 37.8174V37.8184C59.1081 38.2803 59.4272 38.7142 59.7373 39.086C59.8958 39.2759 60.0665 39.4671 60.2393 39.6534L60.7529 40.1954L60.7539 40.1964C62.0032 41.4984 63 42.607 63 44.0001C63 45.2192 62.2364 46.2221 61.209 47.3243L60.7539 47.8038L60.7529 47.8047C60.4221 48.1505 60.0543 48.5339 59.7373 48.9141C59.4278 49.2853 59.1101 49.7192 58.9199 50.1788C58.7368 50.6192 58.6628 51.1341 58.625 51.5919C58.6055 51.8278 58.5935 52.074 58.5859 52.3184L58.5713 53.0362C58.5431 54.8694 58.4744 56.3967 57.4355 57.4356C56.5265 58.3447 55.2437 58.5114 53.709 58.5577L53.0361 58.5714C52.5756 58.5784 52.0637 58.5861 51.5918 58.6251C51.1913 58.6582 50.7466 58.7182 50.3467 58.8555L50.1816 58.918C49.7198 59.1082 49.2858 59.4272 48.9141 59.7374C48.7241 59.8958 48.533 60.0666 48.3467 60.2393L47.8047 60.753L47.8037 60.754C46.5016 62.0033 45.3931 63.0001 44 63.0001C42.7809 63.0001 41.778 62.2364 40.6758 61.209L40.1963 60.754L40.1953 60.753L39.6533 60.2393C39.4669 60.0666 39.2759 59.8958 39.0859 59.7374C38.7142 59.4274 38.2797 59.1091 37.8193 58.919H37.8184C37.3786 58.7367 36.8649 58.6628 36.4082 58.6251C36.1723 58.6056 35.9261 58.5936 35.6816 58.586L34.9639 58.5714C33.2451 58.5449 31.7952 58.483 30.7646 57.6192L30.5645 57.4356C29.6554 56.5266 29.4886 55.2438 29.4424 53.709L29.4287 53.0362C29.4217 52.5756 29.414 52.0637 29.375 51.5919C29.3372 51.1351 29.2633 50.6215 29.0811 50.1817H29.082C28.8919 49.7199 28.5728 49.2859 28.2627 48.9141C28.1042 48.7242 27.9335 48.533 27.7607 48.3467L27.2471 47.8047L27.2461 47.8038L26.791 47.3243C25.7631 46.2206 25 45.2192 25 44.0001C25 42.781 25.7636 41.7781 26.791 40.6758L27.2461 40.1964L27.2471 40.1954C27.5779 39.8496 27.9457 39.4662 28.2627 39.086C28.5726 38.7143 28.8909 38.2797 29.0811 37.8194L29.0801 37.8184C29.2625 37.3786 29.3372 36.8651 29.375 36.4083C29.4139 35.9381 29.4217 35.4281 29.4287 34.9688C29.4641 33.2408 29.5182 31.7947 30.3809 30.7647L30.5645 30.5645C31.4735 29.6555 32.7563 29.4887 34.291 29.4424L34.9639 29.4288C35.4244 29.4218 35.9369 29.4141 36.4092 29.3751C36.8665 29.3373 37.3832 29.2642 37.8232 29.0801L37.8223 29.0792C38.2825 28.8888 38.7154 28.5719 39.0859 28.2628C39.2759 28.1043 39.467 27.9336 39.6533 27.7608L40.1953 27.2471L40.1963 27.2462C41.4984 25.9968 42.6069 25.0001 44 25.0001ZM51.1426 37.2852C50.9032 37.2852 50.6657 37.3205 50.4375 37.3897L50.2129 37.4698C49.9919 37.5614 49.7858 37.6848 49.6016 37.836L49.4248 37.9962L41.1426 46.2794L38.5752 43.711L38.3965 43.5499C37.9643 43.1957 37.4211 42.9991 36.8574 42.9991C36.2935 42.9991 35.7497 43.1955 35.3174 43.5499L35.1396 43.711C34.684 44.1666 34.4277 44.7845 34.4277 45.4288C34.4278 45.9923 34.6236 46.5356 34.9775 46.9678L35.1396 47.1465L39.4248 51.4317C39.6503 51.6575 39.9181 51.8368 40.2129 51.959C40.5076 52.0812 40.8236 52.1436 41.1426 52.1436C41.4617 52.1436 41.7784 52.0813 42.0732 51.959C42.368 51.8368 42.6359 51.6574 42.8613 51.4317L42.8604 51.4307L52.8604 41.4317C53.0859 41.2061 53.2656 40.9383 53.3877 40.6436C53.5096 40.349 53.5723 40.0328 53.5723 39.7139C53.5722 39.395 53.5097 39.0788 53.3877 38.7842C53.2656 38.4896 53.0859 38.2217 52.8604 37.9962C52.6912 37.8271 52.4982 37.6847 52.2881 37.5723L52.0723 37.4698C51.7776 37.3478 51.4615 37.2852 51.1426 37.2852Z" stroke="white" stroke-width="2"/>
</g>
</g>
<defs>
<filter id="filter1_ddddd_2125_368" x="21" y="23.0001" width="46" height="56" filterUnits="userSpaceOnUse" color-interpolation-filters="sRGB">
<feFlood flood-opacity="0" result="BackgroundImageFix"/>
<feColorMatrix in="SourceAlpha" type="matrix" values="0 0 0 0 0 0 0 0 0 0 0 0 0 0 0 0 0 0 127 0" result="hardAlpha"/>
<feOffset/>
<feGaussianBlur stdDeviation="0.5"/>
<feColorMatrix type="matrix" values="0 0 0 0 0 0 0 0 0 0 0 0 0 0 0 0 0 0 0.29 0"/>
<feBlend mode="normal" in2="BackgroundImageFix" result="effect1_dropShadow_2125_368"/>
<feColorMatrix in="SourceAlpha" type="matrix" values="0 0 0 0 0 0 0 0 0 0 0 0 0 0 0 0 0 0 127 0" result="hardAlpha"/>
<feOffset dy="2"/>
<feGaussianBlur stdDeviation="1"/>
<feColorMatrix type="matrix" values="0 0 0 0 0 0 0 0 0 0 0 0 0 0 0 0 0 0 0.26 0"/>
<feBlend mode="normal" in2="effect1_dropShadow_2125_368" result="effect2_dropShadow_2125_368"/>
<feColorMatrix in="SourceAlpha" type="matrix" values="0 0 0 0 0 0 0 0 0 0 0 0 0 0 0 0 0 0 127 0" result="hardAlpha"/>
<feOffset dy="4"/>
<feGaussianBlur stdDeviation="1.5"/>
<feColorMatrix type="matrix" values="0 0 0 0 0 0 0 0 0 0 0 0 0 0 0 0 0 0 0.15 0"/>
<feBlend mode="normal" in2="effect2_dropShadow_2125_368" result="effect3_dropShadow_2125_368"/>
<feColorMatrix in="SourceAlpha" type="matrix" values="0 0 0 0 0 0 0 0 0 0 0 0 0 0 0 0 0 0 127 0" result="hardAlpha"/>
<feOffset dy="8"/>
<feGaussianBlur stdDeviation="1.5"/>
<feColorMatrix type="matrix" values="0 0 0 0 0 0 0 0 0 0 0 0 0 0 0 0 0 0 0.04 0"/>
<feBlend mode="normal" in2="effect3_dropShadow_2125_368" result="effect4_dropShadow_2125_368"/>
<feColorMatrix in="SourceAlpha" type="matrix" values="0 0 0 0 0 0 0 0 0 0 0 0 0 0 0 0 0 0 127 0" result="hardAlpha"/>
<feOffset dy="12"/>
<feGaussianBlur stdDeviation="1.5"/>
<feColorMatrix type="matrix" values="0 0 0 0 0 0 0 0 0 0 0 0 0 0 0 0 0 0 0.01 0"/>
<feBlend mode="normal" in2="effect4_dropShadow_2125_368" result="effect5_dropShadow_2125_368"/>
<feBlend mode="normal" in="SourceGraphic" in2="effect5_dropShadow_2125_368" result="shape"/>
</filter>
<clipPath id="clip0_2125_368">
<rect width="64" height="64" fill="white" transform="translate(12 12)"/>
</clipPath>
</defs>
</svg>
